<?xml version="1.0" standalone="no"?>
<!DOCTYPE svg PUBLIC "-//W3C//DTD SVG 20010904//EN"
 "http://www.w3.org/TR/2001/REC-SVG-20010904/DTD/svg10.dtd">
<svg version="1.0" xmlns="http://www.w3.org/2000/svg"
 width="1024.000000pt" height="1024.000000pt" viewBox="0 0 1024.000000 1024.000000"
 preserveAspectRatio="xMidYMid meet">
<metadata>
Created by potrace 1.11, written by Peter Selinger 2001-2013
</metadata>
<g transform="translate(0.000000,1024.000000) scale(0.100000,-0.100000)"
fill="#000000" stroke="none">
<path d="M4960 10230 c-25 -4 -58 -10 -75 -13 -133 -22 -298 -89 -455 -186
-36 -23 -77 -46 -92 -52 -16 -6 -28 -14 -28 -18 0 -4 -19 -18 -42 -30 -24 -12
-63 -35 -88 -51 -64 -41 -153 -94 -165 -99 -5 -2 -23 -13 -40 -25 -16 -12 -39
-26 -50 -32 -11 -6 -103 -62 -205 -124 -102 -62 -205 -125 -230 -139 -25 -14
-46 -29 -48 -33 -2 -4 -7 -8 -11 -8 -8 0 -426 -251 -446 -268 -5 -4 -17 -11
-25 -15 -8 -4 -31 -17 -51 -30 -20 -12 -115 -69 -210 -127 -96 -57 -176 -107
-179 -110 -3 -3 -15 -11 -27 -17 -57 -32 -68 -39 -81 -50 -7 -7 -17 -13 -22
-13 -9 0 -67 -36 -105 -65 -10 -8 -25 -15 -32 -15 -7 0 -13 -4 -13 -9 0 -5
-11 -12 -25 -15 -14 -4 -25 -11 -25 -16 0 -6 -4 -10 -9 -10 -12 0 -115 -63
-119 -72 -2 -5 -8 -8 -13 -8 -6 0 -35 -16 -65 -35 -30 -19 -59 -35 -64 -35 -6
0 -10 -4 -10 -10 0 -5 -11 -12 -25 -16 -14 -3 -25 -10 -25 -15 0 -5 -7 -9 -15
-9 -8 0 -15 -4 -15 -10 0 -5 -4 -10 -10 -10 -9 0 -389 -228 -400 -240 -3 -3
-14 -10 -25 -16 -61 -33 -91 -50 -95 -55 -3 -3 -16 -12 -30 -19 -65 -34 -157
-100 -168 -121 -42 -81 -26 -167 41 -224 22 -19 45 -35 49 -35 5 0 29 -13 53
-30 24 -16 46 -30 49 -30 4 0 147 -85 186 -111 8 -5 23 -12 33 -15 9 -4 17
-10 17 -15 0 -5 5 -9 10 -9 6 0 36 -16 66 -35 30 -19 57 -35 60 -35 3 0 25
-13 49 -30 24 -16 46 -30 48 -30 3 0 68 -38 145 -85 78 -47 145 -85 151 -85 5
0 11 -3 13 -7 4 -11 173 -113 186 -113 6 0 12 -3 14 -8 4 -9 126 -82 138 -82
5 0 10 -4 12 -9 2 -4 37 -27 78 -50 86 -48 300 -175 316 -188 10 -8 19 -13 88
-53 106 -60 182 -105 191 -112 20 -17 178 -108 187 -108 4 0 8 -4 8 -9 0 -5 8
-11 18 -14 19 -7 94 -50 134 -78 14 -11 28 -19 31 -19 5 0 249 -145 287 -170
8 -6 26 -16 40 -22 14 -7 27 -15 30 -18 3 -3 43 -28 90 -55 115 -68 108 -64
202 -120 46 -27 86 -54 90 -60 4 -5 8 -6 8 -2 0 5 12 0 28 -11 44 -32 183
-112 193 -112 5 0 9 -3 9 -8 0 -7 4 -10 77 -46 21 -11 40 -23 43 -27 3 -4 23
-17 45 -28 22 -12 69 -40 104 -62 34 -21 67 -39 72 -39 5 0 9 -4 9 -8 0 -4 12
-13 28 -20 15 -7 36 -18 47 -25 11 -7 71 -43 132 -80 l113 -67 29 18 c16 9 55
33 87 52 33 19 172 101 309 183 138 83 264 158 282 168 17 10 50 29 72 43 22
15 45 26 51 26 5 0 10 4 10 9 0 5 8 12 18 15 9 3 26 12 37 19 11 7 56 34 100
60 44 26 87 52 95 57 8 5 69 41 135 80 66 39 127 75 135 80 97 60 150 90 159
90 6 0 11 4 11 8 0 5 15 16 33 25 17 9 49 27 69 39 192 117 424 254 435 256 7
2 13 8 13 13 0 5 6 9 14 9 7 0 24 8 37 18 13 11 44 30 69 44 87 49 125 72 128
80 2 4 8 8 12 8 7 0 133 73 302 175 9 5 37 21 62 34 25 14 46 28 46 32 0 4 10
11 23 16 12 4 59 31 105 58 45 28 90 55 100 60 62 36 376 223 417 249 27 17
53 30 57 29 5 -2 8 2 8 7 0 6 10 14 23 19 12 5 82 45 156 90 73 45 137 81 142
81 5 0 9 5 9 10 0 6 4 10 9 10 13 0 135 73 139 82 2 5 9 8 16 8 19 0 62 51 78
90 15 39 15 39 4 95 -11 55 -35 85 -103 125 -32 19 -60 37 -63 40 -6 6 -36 23
-92 54 -21 11 -38 23 -38 26 0 3 -16 12 -35 20 -19 8 -35 17 -35 22 0 4 -5 8
-10 8 -6 0 -29 12 -53 27 -61 39 -303 187 -367 224 -30 17 -77 46 -105 64 -27
17 -72 45 -99 61 -28 16 -64 38 -82 49 -18 11 -70 42 -116 70 -45 27 -84 53
-86 57 -2 4 -8 8 -14 8 -6 0 -29 13 -53 29 -23 16 -72 45 -108 65 -36 20 -71
43 -77 51 -7 8 -16 13 -20 10 -4 -3 -13 2 -20 10 -7 8 -19 15 -26 15 -8 0 -14
4 -14 9 0 5 -8 11 -17 15 -10 3 -34 16 -54 28 -20 13 -96 59 -168 103 -72 44
-143 88 -159 97 -15 10 -36 22 -47 28 -33 18 -59 34 -92 58 -17 12 -33 22 -36
22 -2 0 -100 59 -217 130 -116 72 -216 130 -221 130 -5 0 -9 5 -9 10 0 6 -4
10 -9 10 -8 0 -37 17 -215 126 -49 30 -93 54 -97 54 -5 0 -9 4 -9 9 0 5 -15
15 -32 22 -18 7 -39 19 -47 26 -7 8 -31 24 -53 36 -23 12 -48 27 -57 32 -26
16 -233 141 -271 164 -33 19 -99 53 -110 55 -3 1 -36 14 -75 29 -38 14 -79 28
-90 30 -11 2 -27 7 -35 10 -65 26 -364 44 -460 27z"/>
<path d="M718 7144 c-21 -13 -47 -42 -58 -64 -20 -39 -20 -48 -20 -2097 1
-2167 0 -2077 44 -2282 7 -30 25 -89 35 -116 5 -11 13 -31 18 -45 39 -95 117
-240 136 -248 4 -2 5 -7 3 -11 -3 -4 8 -22 24 -40 17 -18 30 -34 30 -37 0 -18
219 -234 238 -234 5 0 17 -9 27 -20 10 -11 24 -20 32 -20 7 0 13 -4 13 -9 0
-5 14 -14 30 -21 17 -7 30 -16 30 -21 0 -5 4 -9 9 -9 10 0 77 -39 168 -97 28
-18 56 -33 61 -33 6 0 12 -4 14 -8 3 -7 67 -46 351 -216 45 -27 84 -52 87 -55
3 -3 21 -14 40 -25 19 -10 58 -34 87 -52 28 -19 56 -34 62 -34 6 0 11 -4 11
-10 0 -5 5 -10 10 -10 6 0 37 -17 68 -37 31 -21 71 -44 87 -52 17 -8 33 -20
37 -26 5 -6 8 -6 8 0 0 6 3 5 8 -1 6 -10 72 -52 185 -119 97 -57 133 -80 138
-88 3 -5 10 -9 15 -9 8 0 195 -111 264 -157 14 -9 42 -25 63 -36 20 -11 37
-23 37 -27 0 -5 4 -8 9 -8 5 0 69 -37 142 -81 74 -45 150 -90 169 -101 19 -11
54 -33 77 -49 23 -16 44 -29 47 -29 2 0 51 -29 108 -64 96 -59 385 -236 453
-277 17 -11 39 -23 51 -28 11 -5 27 -15 35 -23 8 -7 28 -20 44 -29 51 -26 80
-44 85 -50 3 -3 26 -13 53 -22 70 -24 169 -16 232 17 67 36 76 43 118 99 40
53 59 107 63 179 1 25 5 51 8 57 4 5 2 12 -4 16 -6 4 -7 13 -1 23 6 11 6 24 0
34 -6 10 -6 19 0 23 7 4 7 15 1 30 -6 15 -6 25 0 25 5 0 5 12 0 30 -5 18 -5
32 1 35 5 4 5 13 0 23 -5 9 -10 19 -12 22 -1 3 3 15 10 28 8 15 8 22 1 22 -8
0 -8 6 0 20 8 14 8 20 0 20 -8 0 -8 6 0 20 8 14 8 20 0 20 -8 0 -8 6 0 20 8
14 8 20 0 20 -8 0 -8 6 0 20 8 14 8 20 0 20 -8 0 -8 6 0 20 8 14 8 20 0 20 -8
0 -8 6 0 20 8 14 8 20 0 20 -8 0 -8 6 0 20 7 14 8 26 0 39 -6 12 -6 22 -1 26
6 3 6 17 1 35 -5 18 -5 32 1 35 5 4 5 14 -1 25 -7 13 -7 21 0 25 7 4 7 12 0
25 -7 13 -7 21 0 25 6 4 7 13 1 23 -6 11 -6 24 0 35 7 11 6 17 -1 17 -7 0 -8
6 -1 18 6 11 6 24 0 34 -6 10 -6 19 0 23 7 4 7 15 1 30 -6 16 -6 25 0 25 6 0
6 9 0 25 -6 16 -6 25 0 25 6 0 6 9 0 25 -6 15 -6 25 0 25 5 0 5 12 0 30 -5 18
-5 32 1 35 5 4 4 15 -3 28 -6 12 -11 22 -11 22 0 0 5 10 12 23 8 15 8 22 1 22
-8 0 -8 6 0 20 8 14 8 20 0 20 -8 0 -8 6 0 20 8 14 8 20 0 20 -8 0 -8 6 0 20
8 14 8 20 0 20 -8 0 -8 6 0 20 8 14 8 20 0 20 -8 0 -8 6 0 20 8 14 8 20 0 20
-8 0 -8 6 0 20 8 14 8 20 0 20 -8 0 -8 6 0 20 7 13 7 26 1 38 -7 13 -7 22 0
29 7 7 7 13 1 17 -7 4 -7 17 -2 36 5 18 5 30 0 30 -6 0 -6 10 0 25 6 15 6 26
0 30 -6 4 -7 13 -1 24 6 10 6 23 1 31 -5 8 -5 21 0 30 6 11 5 21 -1 27 -8 8
-7 13 0 17 8 5 8 13 1 26 -7 13 -7 21 0 25 7 5 8 11 1 19 -6 7 -6 17 -1 26 5
8 5 21 -1 31 -6 11 -5 20 1 24 6 4 6 15 0 30 -6 15 -6 25 0 25 5 0 5 12 0 30
-5 18 -5 32 1 35 5 4 4 15 -3 28 -6 12 -11 22 -11 22 0 0 5 10 12 23 8 15 8
22 1 22 -8 0 -8 6 0 20 8 14 8 20 0 20 -8 0 -8 6 0 20 8 14 8 20 0 20 -8 0 -8
6 0 20 8 14 8 20 0 20 -8 0 -8 6 0 20 8 14 8 20 0 20 -8 0 -8 6 0 20 8 14 8
20 0 20 -8 0 -8 6 0 20 8 14 8 20 0 20 -8 0 -8 6 0 20 7 14 8 26 0 39 -6 12
-6 22 -1 26 6 3 6 17 1 35 -5 18 -5 32 1 35 5 4 5 14 -1 25 -7 13 -7 21 0 25
7 4 7 12 0 25 -7 13 -7 21 0 25 6 4 7 13 1 23 -6 11 -6 24 0 35 7 11 6 17 -1
17 -7 0 -8 6 -1 18 6 11 6 24 0 34 -6 10 -6 19 0 23 7 4 7 15 1 30 -6 16 -6
25 0 25 6 0 6 9 0 25 -6 16 -6 25 0 25 6 0 6 9 0 25 -6 15 -6 25 0 25 5 0 5
12 0 30 -5 18 -5 32 1 35 5 4 5 13 0 23 -5 9 -10 19 -12 22 -1 3 3 15 10 28 8
15 8 22 1 22 -8 0 -8 6 0 20 8 14 8 20 0 20 -8 0 -8 6 0 20 8 14 8 20 0 20 -8
0 -8 6 0 20 8 14 8 20 0 20 -8 0 -8 6 0 20 8 14 8 20 0 20 -8 0 -8 6 0 20 8
14 8 20 0 20 -8 0 -8 6 0 20 8 14 8 20 0 20 -8 0 -8 6 0 20 7 13 7 26 1 38 -7
13 -7 22 0 29 7 7 7 13 1 17 -7 4 -7 17 -2 36 5 18 5 30 0 30 -6 0 -6 10 0 25
6 15 6 26 0 30 -6 4 -7 13 -1 24 6 10 6 23 1 31 -5 8 -5 21 0 30 6 11 5 21 -1
27 -8 8 -7 13 0 17 8 5 8 13 1 26 -7 13 -7 21 0 25 7 5 8 11 1 19 -6 7 -6 17
-1 26 5 8 5 21 -1 31 -6 11 -5 20 1 24 6 4 6 15 0 30 -6 15 -6 25 0 25 5 0 5
12 0 30 -5 18 -5 32 1 35 5 4 4 15 -3 28 -6 12 -10 24 -9 27 2 3 7 13 12 23 7
11 6 17 -1 17 -8 0 -8 6 0 20 8 14 8 20 0 20 -8 0 -8 6 0 20 8 14 8 20 0 20
-8 0 -8 6 0 20 8 14 8 20 0 20 -8 0 -8 6 0 20 8 14 8 20 0 20 -8 0 -8 6 0 20
8 14 8 20 0 20 -8 0 -8 6 0 20 8 14 8 20 0 20 -8 0 -8 6 0 19 12 23 -13 44
-115 101 -33 19 -61 37 -63 42 -2 4 -12 8 -22 8 -10 0 -20 4 -22 8 -1 5 -48
35 -103 68 -55 32 -108 63 -117 69 -10 5 -74 44 -143 85 -69 41 -133 80 -143
85 -9 6 -45 27 -78 48 -34 20 -67 37 -73 37 -6 0 -11 4 -11 9 0 5 -19 18 -42
30 -24 12 -83 46 -132 76 -49 30 -91 55 -93 55 -2 0 -29 16 -59 35 -30 19 -59
35 -64 35 -6 0 -10 5 -10 10 0 6 -5 10 -11 10 -6 0 -31 14 -56 30 -24 17 -46
30 -49 30 -3 0 -24 13 -47 29 -23 16 -46 30 -52 31 -5 1 -33 17 -61 35 -29 19
-67 41 -85 51 -19 9 -45 25 -59 34 -14 9 -54 34 -90 55 -36 21 -68 43 -72 49
-4 6 -8 8 -8 4 0 -5 -149 78 -175 99 -6 4 -26 17 -45 27 -19 11 -53 31 -75 44
-22 14 -42 25 -45 25 -3 -1 -17 8 -31 18 -46 33 -530 319 -540 319 -5 0 -9 5
-9 10 0 6 -4 10 -9 10 -5 0 -58 30 -118 66 -59 37 -115 69 -123 72 -8 3 -19
10 -25 14 -31 26 -84 55 -89 50 -3 -3 -6 0 -6 6 0 7 -4 12 -9 12 -9 0 -198
112 -218 130 -7 5 -15 10 -19 10 -4 0 -34 17 -68 38 -34 20 -71 42 -81 49 -11
6 -94 56 -184 110 -91 54 -178 104 -194 111 -45 19 -98 14 -139 -14z"/>
<path d="M9355 7145 c-27 -15 -61 -35 -75 -45 -14 -9 -43 -27 -65 -39 -22 -12
-58 -33 -80 -47 -22 -14 -48 -27 -57 -31 -10 -3 -18 -9 -18 -13 0 -4 -8 -10
-17 -14 -10 -3 -31 -15 -48 -25 -16 -11 -41 -26 -55 -34 -14 -8 -47 -27 -75
-43 -27 -15 -51 -32 -53 -36 -2 -4 -8 -8 -13 -8 -5 0 -50 -25 -100 -55 -50
-30 -94 -55 -100 -55 -5 0 -9 -4 -9 -10 0 -5 -4 -10 -8 -10 -5 0 -73 -38 -151
-85 -78 -47 -146 -85 -151 -85 -6 0 -10 -4 -10 -8 0 -5 -18 -17 -40 -27 -22
-10 -40 -22 -40 -27 0 -4 -4 -8 -10 -8 -9 0 -310 -176 -362 -211 -15 -11 -32
-19 -38 -19 -5 0 -10 -4 -10 -9 0 -5 -9 -12 -19 -16 -11 -3 -112 -62 -226
-130 -114 -69 -209 -125 -211 -125 -3 0 -31 -17 -62 -38 -31 -21 -73 -46 -92
-56 -19 -9 -62 -34 -95 -56 -33 -21 -66 -39 -72 -39 -7 -1 -13 -5 -13 -10 0
-5 -12 -14 -27 -20 -16 -6 -48 -25 -73 -41 -25 -16 -52 -33 -60 -37 -17 -9
-204 -118 -237 -139 -13 -8 -26 -14 -29 -13 -4 0 -11 -6 -16 -15 -5 -9 -13
-16 -18 -16 -5 0 -62 -31 -126 -70 -65 -38 -121 -70 -126 -70 -4 0 -8 -4 -8
-9 0 -5 -8 -11 -17 -14 -10 -4 -36 -18 -58 -32 -22 -14 -48 -28 -57 -31 -10
-4 -18 -9 -18 -13 0 -3 -15 -12 -32 -20 -18 -8 -35 -17 -38 -21 -3 -3 -34 -23
-70 -43 -36 -20 -82 -47 -102 -60 -21 -12 -113 -67 -205 -121 -220 -130 -236
-142 -223 -166 6 -11 6 -21 1 -25 -6 -3 -6 -17 -1 -35 5 -18 5 -32 -1 -35 -5
-4 -5 -14 1 -25 7 -13 7 -21 0 -25 -7 -4 -7 -12 0 -25 7 -13 7 -21 0 -25 -6
-4 -7 -13 -1 -23 6 -11 6 -24 0 -35 -7 -11 -6 -17 1 -17 7 0 8 -6 1 -18 -6
-11 -6 -24 0 -34 6 -10 6 -19 0 -23 -7 -4 -7 -15 -1 -30 6 -16 6 -25 0 -25 -6
0 -6 -9 0 -25 6 -16 6 -25 0 -25 -6 0 -6 -9 0 -25 6 -15 6 -25 0 -25 -5 0 -5
-12 0 -30 5 -18 5 -32 -1 -35 -5 -4 -4 -15 3 -28 6 -12 10 -24 9 -27 -2 -3 -7
-13 -12 -22 -7 -12 -6 -18 1 -18 8 0 8 -6 0 -20 -8 -14 -8 -20 0 -20 8 0 8 -6
0 -20 -8 -14 -8 -20 0 -20 8 0 8 -6 0 -20 -8 -14 -8 -20 0 -20 8 0 8 -6 0 -20
-8 -14 -8 -20 0 -20 8 0 8 -6 0 -20 -8 -14 -8 -20 0 -20 8 0 8 -6 0 -20 -8
-14 -8 -20 0 -20 8 0 8 -6 0 -20 -7 -13 -7 -26 -1 -38 7 -13 7 -22 0 -29 -7
-7 -7 -13 -1 -17 7 -4 7 -17 2 -36 -5 -18 -5 -30 0 -30 6 0 6 -10 0 -25 -6
-15 -6 -26 0 -30 6 -4 7 -13 1 -24 -6 -10 -6 -23 -1 -31 5 -8 5 -21 0 -30 -6
-11 -5 -21 1 -27 8 -8 7 -13 0 -17 -8 -5 -8 -13 -1 -26 7 -13 7 -21 0 -25 -7
-5 -8 -11 -1 -19 6 -7 6 -17 1 -26 -5 -8 -5 -21 1 -31 6 -11 5 -20 -1 -24 -6
-4 -6 -15 0 -30 6 -15 6 -25 0 -25 -5 0 -5 -12 0 -30 5 -18 5 -32 -1 -35 -5
-4 -4 -15 3 -28 6 -12 10 -24 9 -27 -2 -3 -7 -13 -12 -22 -7 -12 -6 -18 1 -18
8 0 8 -6 0 -20 -8 -14 -8 -20 0 -20 8 0 8 -6 0 -20 -8 -14 -8 -20 0 -20 8 0 8
-6 0 -20 -8 -14 -8 -20 0 -20 8 0 8 -6 0 -20 -8 -14 -8 -20 0 -20 8 0 8 -6 0
-20 -8 -14 -8 -20 0 -20 8 0 8 -6 0 -20 -8 -14 -8 -20 0 -20 8 0 8 -6 0 -20
-7 -14 -8 -26 0 -39 6 -12 6 -22 1 -26 -6 -3 -6 -17 -1 -35 5 -18 5 -32 -1
-35 -5 -4 -5 -14 1 -25 7 -13 7 -21 0 -25 -7 -4 -7 -12 0 -25 7 -13 7 -21 0
-25 -6 -4 -7 -13 -1 -23 6 -11 6 -24 0 -35 -7 -11 -6 -17 1 -17 7 0 8 -6 1
-18 -6 -11 -6 -24 0 -34 6 -10 6 -19 0 -23 -7 -4 -7 -15 -1 -30 6 -16 6 -25 0
-25 -6 0 -6 -9 0 -25 6 -16 6 -25 0 -25 -6 0 -6 -9 0 -25 6 -15 6 -25 0 -25
-5 0 -5 -12 0 -30 5 -18 5 -32 -1 -35 -5 -4 -5 -13 0 -23 11 -21 11 -33 0 -54
-7 -12 -6 -18 1 -18 8 0 8 -6 0 -20 -8 -14 -8 -20 0 -20 8 0 8 -6 0 -20 -8
-14 -8 -20 0 -20 8 0 8 -6 0 -20 -8 -14 -8 -20 0 -20 8 0 8 -6 0 -20 -8 -14
-8 -20 0 -20 8 0 8 -6 0 -20 -8 -14 -8 -20 0 -20 8 0 8 -6 0 -20 -8 -14 -8
-20 0 -20 8 0 8 -6 0 -20 -7 -13 -7 -26 -1 -38 7 -13 7 -22 0 -29 -7 -7 -7
-13 -1 -17 7 -4 7 -17 2 -36 -5 -18 -5 -30 0 -30 6 0 6 -10 0 -25 -6 -15 -6
-26 0 -30 6 -4 7 -13 1 -24 -6 -10 -6 -23 -1 -31 5 -8 5 -21 0 -30 -6 -11 -5
-21 1 -27 8 -8 7 -13 0 -17 -8 -5 -8 -13 -1 -26 7 -13 7 -21 0 -25 -7 -5 -8
-11 -1 -19 6 -7 6 -17 1 -26 -5 -8 -5 -21 1 -31 6 -11 5 -20 -1 -24 -6 -4 -6
-15 0 -30 6 -15 6 -25 0 -25 -5 0 -5 -12 0 -30 5 -18 5 -32 -1 -35 -5 -4 -4
-15 3 -28 6 -12 11 -22 11 -22 0 0 -5 -10 -12 -22 -8 -16 -8 -23 -1 -23 8 0 8
-6 0 -20 -8 -14 -8 -20 0 -20 8 0 8 -6 0 -20 -8 -14 -8 -20 0 -20 8 0 8 -6 0
-20 -8 -14 -8 -20 0 -20 8 0 8 -6 0 -20 -8 -14 -8 -20 0 -20 8 0 8 -6 0 -20
-8 -14 -8 -20 0 -20 8 0 8 -6 0 -20 -8 -14 -8 -20 0 -20 8 0 8 -6 0 -20 -7
-14 -8 -26 0 -39 6 -12 6 -22 1 -26 -6 -3 -6 -17 -1 -35 5 -18 5 -32 -1 -35
-5 -4 -5 -14 1 -25 7 -13 7 -21 0 -25 -7 -4 -7 -12 0 -25 7 -13 7 -21 0 -25
-6 -4 -7 -13 -1 -23 6 -11 6 -24 0 -35 -7 -11 -6 -17 1 -17 7 0 8 -6 1 -18 -6
-11 -6 -24 0 -34 6 -10 6 -19 0 -23 -7 -4 -7 -15 -1 -30 6 -16 6 -25 0 -25 -6
0 -6 -9 0 -25 6 -16 6 -25 0 -25 -6 0 -6 -9 0 -25 6 -15 6 -25 0 -25 -5 0 -5
-12 0 -30 5 -18 5 -32 -1 -36 -5 -3 -7 -10 -3 -15 3 -5 7 -33 9 -62 4 -70 37
-143 88 -195 36 -38 91 -76 99 -71 2 2 13 -3 26 -10 34 -18 136 -25 179 -11
33 11 111 51 192 101 14 9 85 52 156 95 72 43 132 82 133 86 2 5 12 8 22 8 10
0 20 3 22 8 4 9 85 62 94 62 4 0 22 11 40 25 18 14 35 25 37 25 3 0 61 34 129
76 67 42 139 85 158 96 19 11 54 33 78 49 24 16 45 29 48 29 3 0 31 17 63 37
105 67 156 97 164 95 4 -1 7 2 7 7 0 5 14 14 30 21 17 7 30 17 30 23 0 6 3 8
6 5 4 -5 187 103 219 129 6 4 21 14 35 20 14 7 41 23 61 35 90 56 153 94 177
107 15 8 29 17 32 21 3 4 23 17 45 29 22 12 69 39 104 61 34 22 65 40 67 40 1
0 22 13 46 28 24 16 59 38 78 48 19 10 41 25 48 32 7 6 20 12 28 12 8 0 14 4
14 9 0 5 8 11 18 15 9 3 59 32 110 64 51 31 181 111 290 176 108 66 199 122
202 125 3 3 19 13 35 21 17 8 32 17 35 20 3 3 28 19 55 35 211 121 396 321
513 555 33 66 105 260 97 260 -2 0 -1 10 4 23 5 13 12 41 16 63 4 21 9 50 13
64 3 14 7 959 9 2100 3 1893 2 2079 -13 2118 -35 92 -136 127 -229 77z"/>
</g>
</svg>
